<svg width="92" height="23" viewBox="0 0 92 23" fill="none" xmlns="http://www.w3.org/2000/svg">
<g clip-path="url(#clip0_3903_2519)">
<path d="M19.4556 9.67848C15.8425 7.58506 11.9112 6.43213 8.38505 6.43213C5.58061 6.43213 3.0123 7.19514 0.956055 8.57462C1.34265 9.9349 1.8107 11.27 2.35761 12.5726C3.84474 11.228 5.93946 10.4885 8.38505 10.4885C11.226 10.4885 14.4523 11.4519 17.4723 13.2004C20.2197 14.7931 23.0679 17.0101 25.0911 19.1318C25.2801 19.3335 25.4579 19.5264 25.6297 19.7207C26.4594 18.6134 27.2184 17.4533 27.9021 16.2478C25.6044 13.8533 22.5293 11.4627 19.4576 9.68117" fill="#015CFE"/>
<path d="M8.38524 16.1221C7.09047 16.1221 6.14726 16.477 5.79835 17.0948C5.65707 17.3449 5.59937 17.6615 5.63187 18.0273C5.67433 18.4815 5.83983 18.9149 6.11011 19.2797C7.06585 20.6008 8.12147 21.8446 9.26744 23C9.26744 23 11.2016 20.6511 14.792 18.1395C12.6098 16.8588 10.269 16.1227 8.38458 16.1227" fill="#015CFE"/>
<path d="M16.8187 14.352C13.9962 12.7163 11.0008 11.8154 8.38473 11.8154C6.09899 11.8154 4.18138 12.5476 2.92773 13.8591C3.34473 14.7747 3.81153 15.6662 4.32598 16.5293C4.37374 16.4009 5.75539 14.7929 8.38473 14.7929C10.3959 14.7929 12.9098 15.5162 15.3608 16.9367C15.5743 17.0604 15.7906 17.1909 16.0081 17.3253C16.0081 17.3253 17.1245 18.0325 17.616 18.3855C19.5747 19.7616 21.497 21.4207 22.8056 22.9878C23.5247 22.2624 24.1873 21.5209 24.7995 20.7693C24.5939 20.5309 24.3757 20.2908 24.1448 20.0493C22.2033 18.013 19.4646 15.8813 16.8187 14.3485" fill="#015CFE"/>
<path d="M3.67935 2.20757C2.42554 2.67098 1.1973 3.20262 0 3.80015C0 3.80015 0.100828 5.13055 0.602949 7.22531C2.80445 5.85592 5.48154 5.10232 8.38482 5.10232C12.1358 5.10232 16.2987 6.31776 20.106 8.52411C23.1573 10.2935 26.2125 12.6464 28.5585 15.0289C29.3032 13.5814 29.946 12.0823 30.4821 10.5429C27.9929 8.25165 25.2677 6.23811 22.354 4.53695C20.6375 3.54105 18.8331 2.70989 16.964 2.0543C12.6525 0.548431 7.9623 0.625068 3.67803 2.20757" fill="#015CFE"/>
<path d="M16.0306 0C15.6691 0 15.3123 0.00739448 14.9581 0.0174783C14.9527 0.0174783 14.9474 0.0196745 14.9436 0.0235828C14.9397 0.0274911 14.9375 0.0327921 14.9375 0.0383192C14.9375 0.0497477 14.9442 0.0557972 14.9581 0.0584862C17.7755 0.797076 20.4826 1.91538 23.0066 3.38348C25.8342 5.03483 28.4896 6.97183 30.9324 9.16491C31.8962 5.98512 32.0601 3.80162 32.0601 3.80162C27.9038 1.72972 22.5443 0.0013448 16.0293 0.0013448" fill="#015CFE"/>
<path d="M56.7271 7.38086H54.1426V17.9343H56.7271V7.38086Z" fill="#015CFE"/>
<path d="M64.5758 7.17758C63.9617 7.16506 63.3528 7.29574 62.7963 7.55952C62.3301 7.77443 61.9214 8.09925 61.6043 8.50688V8.4988C61.5816 8.4561 61.3288 7.96453 60.9873 7.37489H59.0928V17.9284H61.6669V11.6859C61.6669 11.0335 61.8746 10.5223 62.2897 10.1523C62.7092 9.78059 63.2514 9.58246 63.8085 9.5973C64.0716 9.58736 64.3339 9.63094 64.5802 9.72547C64.8263 9.82002 65.0514 9.96358 65.2419 10.1477C65.6131 10.5146 65.799 11.0274 65.7997 11.6859V17.9284H68.3842V11.0201C68.3842 9.85846 68.0305 8.92766 67.3231 8.22763C66.6157 7.5276 65.6988 7.17758 64.5724 7.17758" fill="#015CFE"/>
<path d="M89.3301 7.40283V13.6881C89.3301 14.3412 89.1221 14.8508 88.7061 15.217C88.2791 15.5884 87.7306 15.7847 87.1681 15.7674C86.9056 15.7778 86.6437 15.7352 86.3976 15.6421C86.1515 15.549 85.9262 15.4073 85.7347 15.2251C85.3635 14.862 85.1776 14.3505 85.1768 13.6904V7.40283H82.6025V14.3609C82.6025 15.5231 82.9544 16.4524 83.658 17.1486C84.3617 17.8448 85.277 18.1932 86.4041 18.194C87.0265 18.207 87.6437 18.0759 88.2087 17.811C88.6884 17.5882 89.1064 17.2489 89.4258 16.8232C89.4258 16.8232 89.6899 17.3563 90.0258 17.939H91.9043V7.40283H89.3301Z" fill="#015CFE"/>
<path d="M55.431 2.67289C55.2341 2.66543 55.0379 2.69919 54.8546 2.77204C54.6712 2.84491 54.5047 2.95533 54.3654 3.09638C54.0975 3.38675 53.9516 3.77119 53.9582 4.16856C53.9649 4.56594 54.1236 4.94516 54.4009 5.22618C54.6782 5.50721 55.0523 5.66806 55.4444 5.67479C55.8365 5.68151 56.2158 5.53359 56.5023 5.26224C56.771 4.96619 56.9201 4.57865 56.9201 4.17642C56.9201 3.77419 56.771 3.38664 56.5023 3.09061C56.3608 2.95126 56.1929 2.84242 56.0088 2.77063C55.8247 2.69883 55.6282 2.66559 55.431 2.67289Z" fill="#015CFE"/>
<path d="M75.3284 15.8285C73.4954 15.8285 72.7098 14.28 72.7098 12.6726C72.7098 11.0653 73.492 9.51788 75.3284 9.51788C77.1648 9.51788 77.947 11.0653 77.947 12.6726C77.947 14.28 77.166 15.8285 75.3284 15.8285ZM78.0073 8.55899C77.3402 7.68203 76.2153 7.17432 74.8194 7.17432C73.4533 7.17432 72.3318 7.68742 71.4551 8.71361C70.5785 9.73981 70.1413 11.0549 70.1436 12.6588C70.1436 14.2573 70.5808 15.5746 71.4551 16.6108C72.3295 17.6471 73.451 18.1651 74.8194 18.1651C76.6547 18.1651 77.6658 17.287 77.9572 16.8543V17.5466C77.9679 18.0326 77.799 18.5051 77.4836 18.8714C77.1677 19.239 76.7598 19.5137 76.303 19.6664C75.8017 19.8338 75.2766 19.9165 74.7489 19.911C74.123 19.9082 73.4992 19.8367 72.8885 19.6975L72.7371 19.6618L71.7512 21.7099C72.0861 21.8304 72.4284 21.929 72.7758 22.0053C73.4811 22.1616 74.2012 22.239 74.9231 22.2361C75.6491 22.2411 76.372 22.1416 77.0704 21.9408C77.7059 21.7585 78.3073 21.4708 78.8499 21.0891C79.3724 20.7158 79.7957 20.2171 80.0817 19.6375C80.3914 19.008 80.5476 18.3124 80.5372 17.609V7.37856H78.654C78.2544 8.09282 78.0131 8.55553 78.0131 8.55553" fill="#015CFE"/>
<path d="M48.048 15.2795L45.7219 7.41455H43.9811L41.645 15.2795L39.5261 7.41455H36.8711L39.9303 17.93H43.1273L44.851 12.0198L46.5747 17.93H49.7717L52.8081 7.41455H50.1531L48.048 15.2795Z" fill="#015CFE"/>
</g>
<defs>
<clipPath id="clip0_3903_2519">
<rect width="92" height="23" fill="white"/>
</clipPath>
</defs>
</svg>
