<svg width="165" height="145" viewBox="0 0 165 145" fill="none" xmlns="http://www.w3.org/2000/svg">
<mask id="mask0_3593_4104" style="mask-type:alpha" maskUnits="userSpaceOnUse" x="0" y="0" width="165" height="145">
<rect width="165" height="145" rx="20" fill="#EFF3FF"/>
</mask>
<g mask="url(#mask0_3593_4104)">
<path d="M154.133 144.658C153.992 144.658 153.853 144.624 153.723 144.559L114.448 124.858L104.191 134.808C104.088 134.908 103.969 134.984 103.841 135.031C103.712 135.077 103.577 135.095 103.443 135.082C103.309 135.069 103.178 135.025 103.059 134.954C102.939 134.883 102.833 134.786 102.746 134.667C102.659 134.549 102.594 134.412 102.553 134.265C102.512 134.117 102.497 133.962 102.508 133.807C102.52 133.653 102.557 133.503 102.619 133.365C102.681 133.228 102.766 133.106 102.869 133.006L113.613 122.585C113.759 122.443 113.937 122.351 114.126 122.319C114.315 122.288 114.508 122.317 114.684 122.405L154.003 142.129L171.283 127.605C171.392 127.513 171.515 127.448 171.646 127.411C171.777 127.374 171.913 127.368 172.046 127.392C172.179 127.415 172.306 127.469 172.421 127.55C172.536 127.63 172.637 127.736 172.716 127.861C172.795 127.986 172.853 128.128 172.885 128.278C172.916 128.428 172.922 128.585 172.901 128.738C172.881 128.891 172.834 129.037 172.764 129.17C172.694 129.302 172.602 129.417 172.493 129.508L154.737 144.43C154.562 144.578 154.35 144.657 154.133 144.658Z" fill="white"/>
<path d="M98.8931 158.461C98.743 158.461 98.5948 158.423 98.4589 158.349L67.3365 141.576C67.1437 141.472 66.9838 141.301 66.879 141.088C66.7742 140.875 66.7297 140.63 66.7517 140.386L71.0165 93.1538L10.0459 -5.77713C9.88866 -6.03226 9.82603 -6.34876 9.87175 -6.65699C9.91747 -6.96522 10.0678 -7.23995 10.2897 -7.42073C10.5115 -7.60151 10.7868 -7.67354 11.0548 -7.62097C11.3229 -7.56839 11.5618 -7.39553 11.719 -7.1404L72.9135 92.1526C73.057 92.3855 73.1221 92.6704 73.0968 92.9543L68.8673 139.797L99.3299 156.214C99.5414 156.328 99.7128 156.521 99.8158 156.762C99.9189 157.003 99.9473 157.277 99.8965 157.539C99.8457 157.801 99.7186 158.035 99.5363 158.203C99.354 158.37 99.1274 158.462 98.8939 158.461H98.8931Z" fill="white"/>
<path d="M81.4669 92.0796C81.2291 92.0792 80.9988 91.9838 80.8155 91.8097C80.6321 91.6356 80.5071 91.3936 80.4618 91.1252L72.3013 42.791C72.2705 42.609 72.2775 42.4212 72.3217 42.243C72.3659 42.0647 72.446 41.9009 72.5555 41.7649L82.9715 28.8443C83.1564 28.615 83.4129 28.4795 83.6847 28.4677C83.9564 28.4559 84.2211 28.5687 84.4205 28.7814C84.6199 28.994 84.7377 29.289 84.748 29.6014C84.7582 29.9139 84.6601 30.2183 84.4752 30.4476L74.4132 42.9291L82.4745 90.6763C82.5262 90.9832 82.4698 91.3011 82.3177 91.5602C82.1656 91.8193 81.9302 91.9983 81.6633 92.0579C81.5986 92.0725 81.5329 92.0798 81.4669 92.0796Z" fill="white"/>
<path d="M83.7035 30.8465C83.5133 30.8465 83.3268 30.7856 83.1649 30.6707C83.003 30.5558 82.8722 30.3913 82.787 30.1958L67.5551 -4.75341C67.4357 -5.03259 67.4172 -5.35469 67.5035 -5.64951C67.5898 -5.94433 67.774 -6.18797 68.0158 -6.32733C68.2577 -6.4667 68.5376 -6.4905 68.7947 -6.39354C69.0517 -6.29658 69.265 -6.08671 69.3881 -5.80968L84.2329 28.2492L101.468 22.1996C101.597 22.1534 101.733 22.1369 101.868 22.1512C102.002 22.1654 102.133 22.2102 102.253 22.2828C102.372 22.3554 102.478 22.4544 102.564 22.5742C102.65 22.694 102.715 22.8322 102.754 22.9808C102.794 23.1295 102.807 23.2856 102.794 23.4403C102.781 23.5949 102.741 23.745 102.677 23.882C102.613 24.019 102.527 24.1401 102.422 24.2383C102.317 24.3366 102.197 24.4101 102.067 24.4546L84.0037 30.7951C83.9064 30.8293 83.8052 30.8466 83.7035 30.8465Z" fill="white"/>
<path d="M77.5232 68.7169C77.2513 68.7183 76.9901 68.5954 76.797 68.3753C76.6039 68.1552 76.4947 67.8559 76.4935 67.5432C76.4923 67.2306 76.5992 66.9302 76.7906 66.7081C76.982 66.486 77.2423 66.3605 77.5142 66.3592L107.048 66.0498H107.057C107.329 66.0484 107.59 66.1713 107.783 66.3914C107.976 66.6115 108.085 66.9109 108.087 67.2235C108.088 67.5362 107.981 67.8366 107.79 68.0586C107.598 68.2807 107.338 68.4062 107.066 68.4076L77.533 68.7169H77.5232Z" fill="white"/>
<path d="M205.966 8.3548C205.789 8.35466 205.615 8.30135 205.461 8.20013L163.1 -19.5027C162.982 -19.5785 162.878 -19.6806 162.794 -19.8028C162.71 -19.9251 162.649 -20.0652 162.612 -20.215C162.576 -20.3649 162.566 -20.5215 162.582 -20.676C162.599 -20.8304 162.642 -20.9795 162.709 -21.1147C162.775 -21.25 162.865 -21.3686 162.972 -21.4639C163.079 -21.5592 163.201 -21.6292 163.332 -21.6698C163.462 -21.7105 163.599 -21.721 163.733 -21.7008C163.867 -21.6806 163.996 -21.63 164.113 -21.552L206.474 6.15076C206.671 6.27935 206.826 6.47931 206.913 6.71941C207.001 6.95952 207.017 7.22627 206.959 7.478C206.901 7.72973 206.772 7.95228 206.593 8.1109C206.413 8.26952 206.193 8.35528 205.966 8.3548Z" fill="white"/>
<path d="M51.4181 60.4905C51.1981 60.4912 50.9837 60.4105 50.8067 60.2603C50.6296 60.1101 50.4992 59.8984 50.4349 59.6565C50.3705 59.4146 50.3755 59.1552 50.4492 58.9168C50.5229 58.6784 50.6613 58.4736 50.844 58.3327L72.7343 41.4459C72.8682 41.3427 73.0213 41.2773 73.1813 41.2549L103.486 37.0109C103.662 36.9858 103.842 37.0143 104.006 37.0934L139.278 54.0477L173.379 49.9782L242.975 -45.3496L251.639 -62.6283L231.443 -133.38C231.42 -133.46 231.405 -133.543 231.398 -133.628L228.691 -164.09C228.666 -164.4 228.748 -164.709 228.919 -164.949C229.091 -165.19 229.338 -165.343 229.608 -165.374C229.877 -165.406 230.146 -165.314 230.356 -165.118C230.567 -164.922 230.701 -164.639 230.731 -164.33L233.426 -133.994L253.73 -62.8631C253.775 -62.7057 253.791 -62.5392 253.776 -62.3744C253.761 -62.2096 253.716 -62.0502 253.644 -61.9068L244.704 -44.0821C244.674 -44.0223 244.64 -43.9656 244.601 -43.9128L174.683 51.8596C174.512 52.0939 174.269 52.2425 174.004 52.2742L139.23 56.4238C139.059 56.4442 138.887 56.415 138.728 56.3389L103.466 39.389L73.6738 43.5613L51.9885 60.2906C51.82 60.421 51.6213 60.4906 51.4181 60.4905Z" fill="white"/>
<path d="M114.273 124.664C114.028 124.664 113.791 124.562 113.605 124.378C113.42 124.194 113.297 123.94 113.261 123.661L108.217 85.3713C108.194 85.2171 108.199 85.0593 108.23 84.9072C108.261 84.755 108.318 84.6115 108.398 84.4849C108.478 84.3584 108.579 84.2513 108.695 84.17C108.811 84.0888 108.94 84.0348 109.074 84.0114C109.209 83.988 109.346 83.9956 109.478 84.0336C109.609 84.0717 109.733 84.1396 109.842 84.2333C109.951 84.3269 110.043 84.4446 110.111 84.5793C110.18 84.714 110.225 84.8632 110.244 85.0181L115.288 123.308C115.308 123.461 115.301 123.618 115.269 123.768C115.237 123.918 115.179 124.06 115.099 124.184C115.019 124.309 114.918 124.414 114.803 124.494C114.688 124.574 114.56 124.627 114.426 124.65C114.376 124.659 114.324 124.664 114.273 124.664Z" fill="white"/>
<path d="M111.752 108.006C111.732 108.006 111.711 108.006 111.692 108.004L70.9915 105.236C70.8571 105.226 70.7256 105.187 70.6046 105.119C70.4835 105.051 70.3752 104.957 70.2859 104.841C70.1966 104.725 70.128 104.59 70.084 104.444C70.0401 104.298 70.0216 104.143 70.0297 103.988C70.0377 103.834 70.0722 103.682 70.1311 103.543C70.19 103.404 70.2722 103.28 70.3729 103.177C70.4736 103.074 70.591 102.995 70.7182 102.945C70.8455 102.894 70.9801 102.873 71.1145 102.882L111.657 105.641L144.412 96.1253C144.542 96.0873 144.678 96.0794 144.811 96.1018C144.944 96.1242 145.072 96.1765 145.188 96.2558C145.304 96.3352 145.405 96.4399 145.485 96.5641C145.566 96.6882 145.624 96.8294 145.657 96.9795C145.69 97.1296 145.697 97.2857 145.677 97.4389C145.658 97.5921 145.612 97.7394 145.543 97.8723C145.474 98.0053 145.383 98.1213 145.275 98.2138C145.167 98.3063 145.045 98.3734 144.914 98.4114L112.003 107.971C111.921 107.994 111.837 108.006 111.752 108.006Z" fill="white"/>
<path d="M134.203 134.661C134.017 134.661 133.835 134.603 133.676 134.493C133.517 134.383 133.387 134.225 133.299 134.037C133.212 133.849 133.17 133.637 133.18 133.423C133.189 133.21 133.248 133.004 133.351 132.827L150.288 103.685C150.406 103.481 150.577 103.325 150.776 103.238L189.446 86.3559C189.573 86.2989 189.707 86.2713 189.843 86.2746C189.978 86.278 190.112 86.3122 190.236 86.3753C190.36 86.4385 190.472 86.5293 190.565 86.6424C190.658 86.7556 190.731 86.889 190.779 87.0347C190.827 87.1805 190.85 87.3358 190.846 87.4916C190.841 87.6474 190.81 87.8007 190.754 87.9426C190.697 88.0844 190.617 88.212 190.518 88.318C190.418 88.424 190.301 88.5062 190.174 88.5599L151.81 105.308L135.056 134.136C134.962 134.298 134.836 134.43 134.687 134.522C134.538 134.613 134.372 134.661 134.203 134.661Z" fill="white"/>
<path d="M23.236 14.7651C22.9947 14.7653 22.7611 14.6676 22.5763 14.4893C22.3915 14.311 22.2672 14.0634 22.2255 13.7901C22.1838 13.5169 22.2272 13.2354 22.3481 12.9954C22.469 12.7553 22.6597 12.5719 22.8866 12.4776L89.073 -15.1281C89.2006 -15.1859 89.3369 -15.2137 89.4739 -15.2098C89.6109 -15.206 89.7459 -15.1706 89.8708 -15.1057C89.9957 -15.0408 90.1081 -14.9478 90.2012 -14.8321C90.2943 -14.7165 90.3663 -14.5805 90.4129 -14.4323C90.4596 -14.284 90.4799 -14.1266 90.4726 -13.9692C90.4654 -13.8118 90.4308 -13.6576 90.3709 -13.5159C90.311 -13.3741 90.2269 -13.2476 90.1237 -13.1439C90.0206 -13.0401 89.9003 -12.9612 89.7702 -12.9118L23.5837 14.6939C23.4723 14.7406 23.3546 14.7647 23.236 14.7651Z" fill="white"/>
<path d="M159.886 101.702C159.854 101.702 159.823 101.702 159.792 101.697C159.658 101.683 159.528 101.639 159.408 101.567C159.289 101.495 159.183 101.397 159.097 101.278C159.011 101.159 158.946 101.022 158.906 100.874C158.865 100.726 158.851 100.571 158.863 100.417L162.585 53.0703C162.61 52.7589 162.741 52.4715 162.95 52.2712C163.159 52.0709 163.428 51.9741 163.699 52.0023C163.97 52.0304 164.22 52.1811 164.394 52.4212C164.568 52.6613 164.652 52.9711 164.628 53.2825L160.905 100.629C160.882 100.922 160.765 101.194 160.576 101.393C160.388 101.591 160.141 101.701 159.886 101.702Z" fill="white"/>
<path d="M162.007 74.6991C161.881 74.6991 161.755 74.6723 161.638 74.6199L137.32 63.8491C137.066 63.7366 136.862 63.5127 136.752 63.2268C136.642 62.9409 136.635 62.6164 136.733 62.3246C136.83 62.0328 137.025 61.7977 137.274 61.671C137.522 61.5442 137.805 61.5363 138.058 61.6488L162.376 72.4196C162.6 72.5183 162.786 72.7041 162.903 72.9446C163.02 73.1851 163.06 73.4651 163.016 73.736C162.973 74.0069 162.848 74.2516 162.663 74.4275C162.479 74.6035 162.246 74.6995 162.007 74.6991Z" fill="white"/>
<path d="M47.7024 4.55933C47.5424 4.55905 47.3846 4.51571 47.2418 4.43274C47.0989 4.34978 46.9749 4.2295 46.8797 4.08155C46.7846 3.9336 46.7208 3.76208 46.6936 3.58073C46.6664 3.39937 46.6765 3.2132 46.7232 3.03715L56.9099 -35.3001C56.9635 -35.5004 57.0626 -35.6806 57.1969 -35.8221L104.274 -85.8068C104.474 -86.0189 104.738 -86.131 105.01 -86.1186C105.282 -86.1061 105.538 -85.97 105.723 -85.7403C105.907 -85.5105 106.005 -85.206 105.994 -84.8935C105.983 -84.5811 105.865 -84.2864 105.665 -84.0743L58.7929 -34.3061L48.6825 3.72609C48.6182 3.96729 48.4883 4.1784 48.3118 4.32838C48.1354 4.47836 47.9218 4.55931 47.7024 4.55933Z" fill="white"/>
<path d="M119.646 84.2518C119.478 84.2518 119.312 84.2042 119.164 84.1132C119.015 84.0222 118.889 83.8907 118.795 83.7301C118.701 83.5695 118.643 83.3849 118.626 83.1925C118.609 83.0001 118.633 82.8058 118.697 82.6268L129.859 51.1869L120.075 -7.43231C120.046 -7.60429 120.051 -7.78149 120.089 -7.95102L126.609 -36.8869C126.679 -37.1872 126.85 -37.4435 127.083 -37.6C127.317 -37.7565 127.595 -37.8005 127.857 -37.7226C128.118 -37.6446 128.343 -37.4509 128.481 -37.1836C128.619 -36.9164 128.66 -36.5972 128.594 -36.2956L122.133 -7.61668L131.932 51.0856C131.969 51.3099 131.949 51.5418 131.874 51.7533L120.597 83.5171C120.52 83.7345 120.388 83.9206 120.219 84.0514C120.05 84.1823 119.85 84.2521 119.646 84.2518Z" fill="white"/>
<path d="M40.7885 154.041C40.5501 154.042 40.319 153.946 40.1352 153.771C39.9513 153.597 39.8262 153.354 39.7812 153.085C39.7363 152.815 39.7745 152.536 39.8891 152.296C40.0037 152.055 40.1876 151.868 40.4092 151.767L67.3923 139.412C67.6444 139.3 67.925 139.306 68.1731 139.43C68.4212 139.554 68.6166 139.786 68.7167 140.075C68.8168 140.364 68.8135 140.687 68.7075 140.973C68.6015 141.259 68.4015 141.485 68.1509 141.603L41.1678 153.957C41.0472 154.013 40.9184 154.041 40.7885 154.041Z" fill="white"/>
<path d="M31.8091 103.015C31.3991 103.015 31.004 102.838 30.7017 102.52C30.3994 102.201 30.2117 101.764 30.1757 101.294C30.1397 100.825 30.2579 100.357 30.5071 99.9822C30.7563 99.6078 31.1184 99.3544 31.522 99.2717L129.692 79.0717L196.351 -127.334C196.426 -127.566 196.54 -127.779 196.687 -127.961C196.833 -128.142 197.01 -128.289 197.205 -128.392C197.401 -128.495 197.613 -128.553 197.828 -128.563C198.043 -128.572 198.258 -128.532 198.46 -128.446C198.662 -128.36 198.847 -128.229 199.005 -128.06C199.163 -127.891 199.29 -127.689 199.38 -127.464C199.47 -127.238 199.52 -126.995 199.528 -126.748C199.536 -126.5 199.502 -126.253 199.427 -126.021L132.441 81.3956C132.341 81.7033 132.174 81.9759 131.955 82.1863C131.736 82.3968 131.473 82.5379 131.192 82.5957L32.0998 102.985C32.0038 103.005 31.9066 103.015 31.8091 103.015Z" fill="white"/>
<path d="M162.007 222.09C161.742 222.09 161.482 222.017 161.247 221.876C161.013 221.735 160.811 221.531 160.66 221.281C160.509 221.031 160.413 220.743 160.38 220.441C160.347 220.139 160.377 219.832 160.469 219.547L192.353 120.823C192.428 120.591 192.542 120.378 192.689 120.197C192.835 120.015 193.011 119.868 193.207 119.765C193.403 119.662 193.615 119.604 193.83 119.595C194.045 119.586 194.26 119.625 194.462 119.712C194.664 119.798 194.849 119.929 195.007 120.098C195.165 120.266 195.292 120.469 195.382 120.694C195.472 120.919 195.522 121.162 195.53 121.41C195.538 121.657 195.503 121.904 195.429 122.137L163.545 220.861C163.428 221.221 163.218 221.533 162.943 221.753C162.668 221.972 162.342 222.09 162.007 222.09Z" fill="white"/>
<path d="M186.205 147.163C185.987 147.163 185.772 147.114 185.571 147.017C185.371 146.921 185.189 146.779 185.036 146.601L129.754 82.0388C129.453 81.6814 129.287 81.2017 129.292 80.7041C129.297 80.2066 129.473 79.7315 129.781 79.3823C130.09 79.0332 130.506 78.8383 130.938 78.8401C131.371 78.8419 131.786 79.0402 132.092 79.3919L187.374 143.954C187.601 144.219 187.754 144.555 187.815 144.92C187.877 145.285 187.843 145.663 187.718 146.005C187.593 146.348 187.383 146.641 187.114 146.847C186.844 147.053 186.528 147.163 186.205 147.163Z" fill="white"/>
<path d="M192.998 99.1415C192.687 99.1416 192.382 99.0402 192.12 98.849C191.857 98.6579 191.647 98.3848 191.514 98.0616L154.036 6.98066L104.446 -12.0394C104.242 -12.1178 104.053 -12.2418 103.89 -12.4041C103.728 -12.5665 103.594 -12.7641 103.498 -12.9857C103.402 -13.2072 103.345 -13.4485 103.329 -13.6956C103.314 -13.9426 103.341 -14.1908 103.41 -14.4257C103.478 -14.6607 103.585 -14.878 103.727 -15.065C103.868 -15.2521 104.04 -15.4054 104.232 -15.5161C104.425 -15.6268 104.635 -15.6928 104.85 -15.7103C105.065 -15.7278 105.28 -15.6965 105.485 -15.6181L155.738 3.65715C155.948 3.73771 156.142 3.8663 156.307 4.03519C156.473 4.20408 156.607 4.40976 156.702 4.63986L194.477 96.4484C194.595 96.7358 194.649 97.0529 194.632 97.3703C194.615 97.6877 194.528 97.995 194.381 98.2637C194.233 98.5324 194.028 98.7538 193.786 98.9072C193.544 99.0607 193.272 99.1413 192.996 99.1415H192.998Z" fill="white"/>
<path d="M109.223 86.6143C108.926 86.6138 108.64 86.49 108.416 86.2657C108.193 86.0414 108.047 85.7318 108.006 85.3939L96.78 -7.54641C96.7351 -7.91803 96.8204 -8.29496 97.0172 -8.59427C97.2139 -8.89357 97.506 -9.09073 97.8292 -9.14238C98.1524 -9.19403 98.4802 -9.09594 98.7404 -8.86968C99.0007 -8.64342 99.1722 -8.30754 99.2171 -7.93591L110.443 85.0072C110.488 85.3788 110.403 85.7557 110.206 86.055C110.009 86.3543 109.717 86.5514 109.394 86.603C109.337 86.6111 109.28 86.6149 109.223 86.6143Z" fill="white"/>
<path d="M68.962 128.625C68.9263 128.625 68.8906 128.623 68.855 128.619C68.5846 128.586 68.3364 128.432 68.165 128.189C67.9935 127.947 67.913 127.636 67.9409 127.325L69.8802 105.789C69.8927 105.634 69.9319 105.483 69.9954 105.345C70.059 105.208 70.1456 105.086 70.2504 104.987C70.3552 104.888 70.476 104.814 70.6058 104.769C70.7357 104.724 70.872 104.709 71.0068 104.725C71.1417 104.742 71.2724 104.788 71.3915 104.863C71.5105 104.937 71.6155 105.038 71.7004 105.16C71.7853 105.282 71.8484 105.421 71.886 105.571C71.9236 105.721 71.935 105.878 71.9195 106.033L69.9803 127.567C69.9541 127.857 69.8356 128.126 69.6476 128.321C69.4596 128.516 69.2154 128.624 68.962 128.625Z" fill="white"/>
<path d="M130.903 82.6253C130.638 82.6253 130.377 82.5517 130.143 82.4107C129.908 82.2697 129.707 82.0656 129.556 81.8158C129.405 81.5659 129.309 81.2778 129.275 80.976C129.242 80.6741 129.273 80.3675 129.365 80.0823L196.351 -127.334C196.426 -127.566 196.54 -127.779 196.687 -127.961C196.833 -128.142 197.01 -128.289 197.205 -128.392C197.401 -128.495 197.613 -128.553 197.828 -128.563C198.043 -128.572 198.258 -128.532 198.46 -128.446C198.662 -128.36 198.847 -128.229 199.005 -128.06C199.163 -127.891 199.29 -127.689 199.38 -127.464C199.47 -127.238 199.52 -126.995 199.528 -126.748C199.536 -126.5 199.502 -126.253 199.427 -126.021L132.441 81.3956C132.324 81.7566 132.114 82.068 131.839 82.2878C131.564 82.5077 131.237 82.6254 130.903 82.6253Z" fill="white"/>
</g>
</svg>
