<svg width="505" height="350" viewBox="0 0 505 350" fill="none" xmlns="http://www.w3.org/2000/svg">
<mask id="mask0_3593_3821" style="mask-type:alpha" maskUnits="userSpaceOnUse" x="0" y="0" width="505" height="350">
<rect width="505" height="350" rx="20" fill="#EFF3FF"/>
</mask>
<g mask="url(#mask0_3593_3821)">
<path d="M359.645 309.112C359.315 309.112 358.99 309.045 358.688 308.914L267.045 269.055L243.112 289.185C242.872 289.387 242.595 289.54 242.295 289.635C241.996 289.73 241.681 289.765 241.368 289.739C241.055 289.712 240.75 289.624 240.471 289.48C240.192 289.337 239.944 289.139 239.741 288.9C239.539 288.66 239.386 288.384 239.29 288.085C239.195 287.787 239.16 287.472 239.186 287.16C239.213 286.848 239.301 286.544 239.445 286.266C239.589 285.988 239.787 285.741 240.027 285.539L265.097 264.454C265.438 264.168 265.853 263.982 266.294 263.918C266.736 263.854 267.186 263.914 267.595 264.092L359.341 303.996L399.661 274.611C399.915 274.426 400.202 274.293 400.508 274.219C400.813 274.145 401.13 274.132 401.44 274.18C401.751 274.228 402.049 274.336 402.317 274.499C402.585 274.662 402.819 274.876 403.004 275.129C403.19 275.382 403.323 275.669 403.397 275.973C403.472 276.278 403.485 276.594 403.437 276.903C403.389 277.213 403.28 277.51 403.116 277.777C402.953 278.045 402.738 278.278 402.485 278.463L361.053 308.652C360.644 308.95 360.151 309.111 359.645 309.112Z" fill="white"/>
<path d="M646.605 206.648C646.223 206.649 645.846 206.558 645.506 206.383C645.166 206.208 644.873 205.954 644.651 205.643L501.864 4.75351C501.678 4.49823 501.544 4.20859 501.471 3.90142C501.398 3.59425 501.387 3.27565 501.438 2.9641C501.489 2.65255 501.602 2.35424 501.77 2.08648C501.937 1.81872 502.157 1.58684 502.415 1.40427C502.673 1.22171 502.966 1.09212 503.275 1.02298C503.583 0.953849 503.903 0.946546 504.215 1.00153C504.527 1.05652 504.825 1.1727 505.091 1.3433C505.357 1.5139 505.587 1.73552 505.767 1.99536L648.554 202.885C648.808 203.241 648.958 203.661 648.989 204.097C649.019 204.533 648.929 204.969 648.728 205.357C648.527 205.746 648.222 206.072 647.848 206.299C647.474 206.527 647.044 206.648 646.605 206.648Z" fill="white"/>
<path d="M230.751 337.04C230.4 337.039 230.054 336.962 229.737 336.813L157.118 302.877C156.669 302.667 156.296 302.322 156.051 301.891C155.807 301.46 155.703 300.964 155.754 300.471L165.705 204.91L23.4404 4.75366C23.0735 4.23748 22.9274 3.59716 23.0341 2.97354C23.1407 2.34992 23.4915 1.7941 24.0092 1.42834C24.5269 1.06259 25.1691 0.916857 25.7946 1.02322C26.42 1.12959 26.9775 1.47933 27.3443 1.99551L170.132 202.885C170.466 203.356 170.618 203.932 170.559 204.507L160.69 299.278L231.77 332.493C232.263 332.723 232.663 333.114 232.904 333.602C233.144 334.089 233.21 334.644 233.092 335.174C232.973 335.704 232.677 336.178 232.251 336.517C231.826 336.856 231.297 337.041 230.753 337.04H230.751Z" fill="white"/>
<path d="M432.555 177.932C431.969 177.932 431.403 177.718 430.965 177.331C430.526 176.943 430.246 176.408 430.177 175.828C430.108 175.248 430.255 174.663 430.59 174.183C430.924 173.704 431.424 173.364 431.994 173.227L477.884 162.172L467.317 139.042C467.078 138.52 467.037 137.93 467.199 137.379C467.362 136.829 467.718 136.355 468.202 136.045L557.572 78.8981C557.836 78.729 558.131 78.6134 558.441 78.558C558.75 78.5027 559.067 78.5086 559.374 78.5755C559.681 78.6423 559.971 78.7688 560.229 78.9476C560.487 79.1265 560.707 79.3543 560.877 79.6179C561.047 79.8816 561.163 80.176 561.218 80.4843C561.274 80.7927 561.268 81.1089 561.201 81.4149C561.134 81.7209 561.007 82.0108 560.827 82.268C560.648 82.5251 560.42 82.7445 560.155 82.9137L472.526 138.945L483.434 162.823C483.58 163.143 483.654 163.491 483.649 163.843C483.644 164.194 483.562 164.54 483.408 164.856C483.253 165.172 483.031 165.45 482.756 165.67C482.482 165.891 482.162 166.048 481.819 166.13L433.116 177.865C432.932 177.909 432.744 177.932 432.555 177.932Z" fill="white"/>
<path d="M190.09 202.737C189.535 202.736 188.997 202.543 188.57 202.191C188.142 201.838 187.85 201.349 187.744 200.806L168.703 103.016C168.631 102.648 168.648 102.268 168.751 101.907C168.854 101.547 169.041 101.215 169.296 100.94L193.6 74.7992C194.032 74.3353 194.63 74.0612 195.264 74.0373C195.898 74.0135 196.516 74.2417 196.981 74.6719C197.447 75.102 197.721 75.6989 197.745 76.3311C197.769 76.9633 197.54 77.5791 197.109 78.043L173.631 103.296L192.441 199.897C192.561 200.518 192.43 201.162 192.075 201.686C191.72 202.21 191.171 202.572 190.548 202.693C190.397 202.722 190.243 202.737 190.09 202.737Z" fill="white"/>
<path d="M195.308 78.8501C194.864 78.8501 194.429 78.727 194.051 78.4945C193.673 78.2619 193.368 77.9292 193.169 77.5336L157.628 6.82458C157.35 6.25974 157.306 5.60807 157.508 5.01159C157.709 4.41512 158.139 3.92219 158.703 3.64022C159.268 3.35826 159.921 3.3101 160.521 3.50627C161.12 3.70245 161.618 4.12706 161.905 4.68753L196.543 73.5952L236.759 61.3558C237.06 61.2622 237.377 61.2289 237.691 61.2578C238.005 61.2866 238.31 61.3771 238.589 61.524C238.868 61.6709 239.115 61.8713 239.315 62.1137C239.516 62.3561 239.667 62.6357 239.759 62.9364C239.851 63.2371 239.883 63.553 239.852 63.8659C239.821 64.1788 239.729 64.4825 239.58 64.7596C239.431 65.0367 239.228 65.2817 238.984 65.4805C238.74 65.6793 238.458 65.828 238.156 65.918L196.008 78.7461C195.781 78.8153 195.545 78.8503 195.308 78.8501Z" fill="white"/>
<path d="M180.887 155.469C180.253 155.472 179.643 155.224 179.192 154.778C178.742 154.333 178.487 153.727 178.484 153.095C178.482 152.462 178.731 151.854 179.178 151.405C179.624 150.956 180.232 150.702 180.866 150.699L249.777 150.073H249.799C250.434 150.07 251.043 150.319 251.494 150.764C251.944 151.21 252.199 151.815 252.202 152.448C252.205 153.08 251.955 153.688 251.509 154.138C251.062 154.587 250.455 154.841 249.82 154.843L180.91 155.469H180.887Z" fill="white"/>
<path d="M481.258 166.197C480.944 166.204 480.632 166.149 480.339 166.036C480.046 165.923 479.778 165.753 479.551 165.537C479.092 165.1 478.826 164.499 478.811 163.867C478.797 163.234 479.035 162.622 479.473 162.164C479.911 161.706 480.514 161.441 481.148 161.427L613.362 155.268C613.676 155.254 613.99 155.301 614.286 155.407C614.582 155.514 614.854 155.677 615.087 155.888C615.319 156.099 615.507 156.354 615.641 156.638C615.775 156.922 615.851 157.229 615.866 157.542C615.881 157.855 615.833 158.168 615.727 158.463C615.62 158.758 615.456 159.029 615.244 159.261C615.032 159.493 614.777 159.681 614.492 159.814C614.208 159.948 613.899 160.024 613.585 160.038L481.371 166.197H481.258Z" fill="white"/>
<path d="M480.588 33.3451C480.175 33.3448 479.768 33.2369 479.409 33.0322L380.566 -23.016C380.291 -23.1695 380.048 -23.3759 379.853 -23.6233C379.658 -23.8706 379.514 -24.1541 379.429 -24.4573C379.344 -24.7605 379.32 -25.0774 379.359 -25.3898C379.397 -25.7022 379.498 -26.0039 379.654 -26.2775C379.81 -26.5511 380.019 -26.7912 380.268 -26.984C380.518 -27.1767 380.803 -27.3183 381.108 -27.4006C381.413 -27.4828 381.731 -27.5041 382.044 -27.4632C382.357 -27.4223 382.659 -27.32 382.932 -27.1623L481.774 28.8859C482.233 29.146 482.594 29.5506 482.798 30.0364C483.003 30.5222 483.04 31.0618 482.905 31.5711C482.77 32.0804 482.469 32.5307 482.05 32.8516C481.631 33.1725 481.117 33.3461 480.588 33.3451Z" fill="white"/>
<path d="M119.976 138.826C119.463 138.828 118.962 138.664 118.549 138.361C118.136 138.057 117.832 137.628 117.682 137.139C117.532 136.649 117.543 136.125 117.715 135.642C117.887 135.16 118.21 134.746 118.636 134.461L169.714 100.295C170.026 100.087 170.384 99.9541 170.757 99.9088L241.468 91.3224C241.88 91.2717 242.298 91.3293 242.68 91.4894L324.981 125.791L404.552 117.558L566.941 -75.309L587.157 -110.267L540.034 -253.411C539.981 -253.574 539.945 -253.742 539.928 -253.913L533.613 -315.544C533.553 -316.171 533.745 -316.796 534.145 -317.282C534.546 -317.769 535.123 -318.078 535.751 -318.142C536.38 -318.206 537.008 -318.02 537.499 -317.624C537.99 -317.228 538.304 -316.655 538.372 -316.029L544.661 -254.654L592.037 -110.742C592.142 -110.424 592.179 -110.087 592.144 -109.753C592.109 -109.42 592.004 -109.098 591.836 -108.807L570.977 -72.7445C570.907 -72.6235 570.827 -72.5089 570.737 -72.402L407.594 121.364C407.195 121.838 406.627 122.139 406.01 122.203L324.869 130.599C324.471 130.64 324.069 130.581 323.7 130.427L241.421 96.1337L171.906 104.575L121.307 138.422C120.914 138.686 120.45 138.826 119.976 138.826Z" fill="white"/>
<path d="M266.637 268.661C266.065 268.66 265.512 268.455 265.079 268.083C264.645 267.711 264.36 267.197 264.275 266.633L252.505 189.164C252.453 188.852 252.464 188.533 252.536 188.225C252.609 187.918 252.742 187.627 252.928 187.371C253.114 187.115 253.35 186.899 253.621 186.734C253.892 186.57 254.193 186.461 254.506 186.413C254.82 186.366 255.14 186.381 255.448 186.458C255.755 186.535 256.044 186.672 256.298 186.862C256.552 187.051 256.766 187.289 256.927 187.562C257.087 187.835 257.192 188.136 257.235 188.45L269.004 265.918C269.051 266.228 269.037 266.544 268.961 266.848C268.885 267.152 268.75 267.439 268.564 267.691C268.377 267.943 268.143 268.156 267.873 268.318C267.604 268.48 267.306 268.587 266.995 268.633C266.876 268.651 266.757 268.661 266.637 268.661Z" fill="white"/>
<path d="M260.756 234.959C260.709 234.959 260.66 234.959 260.614 234.954L165.647 229.354C165.333 229.335 165.027 229.255 164.744 229.118C164.462 228.981 164.209 228.79 164.001 228.556C163.792 228.321 163.632 228.048 163.53 227.752C163.427 227.456 163.384 227.143 163.403 226.83C163.422 226.518 163.502 226.212 163.639 225.93C163.777 225.648 163.969 225.396 164.204 225.189C164.439 224.981 164.712 224.821 165.009 224.719C165.306 224.617 165.621 224.574 165.934 224.593L260.533 230.175L336.961 210.922C337.265 210.845 337.582 210.829 337.893 210.874C338.204 210.92 338.503 211.026 338.772 211.186C339.042 211.347 339.278 211.559 339.465 211.81C339.653 212.061 339.789 212.347 339.866 212.65C339.943 212.954 339.959 213.27 339.914 213.58C339.868 213.89 339.762 214.188 339.601 214.457C339.44 214.726 339.228 214.96 338.976 215.148C338.724 215.335 338.437 215.47 338.133 215.547L261.341 234.888C261.15 234.935 260.953 234.959 260.756 234.959Z" fill="white"/>
<path d="M313.14 288.887C312.707 288.886 312.282 288.769 311.911 288.547C311.54 288.324 311.236 288.006 311.032 287.625C310.828 287.244 310.731 286.815 310.753 286.383C310.774 285.952 310.913 285.534 311.154 285.176L350.672 226.216C350.948 225.803 351.346 225.487 351.811 225.311L442.042 191.156C442.336 191.041 442.651 190.985 442.967 190.992C443.283 190.999 443.595 191.068 443.884 191.196C444.174 191.323 444.435 191.507 444.652 191.736C444.87 191.965 445.04 192.235 445.152 192.53C445.264 192.825 445.317 193.139 445.307 193.454C445.296 193.769 445.223 194.08 445.092 194.367C444.961 194.654 444.774 194.912 444.542 195.126C444.31 195.341 444.037 195.507 443.74 195.616L354.224 229.5L315.131 287.826C314.913 288.152 314.617 288.42 314.269 288.605C313.922 288.79 313.534 288.887 313.14 288.887Z" fill="white"/>
<path d="M54.2171 46.3145C53.6541 46.3149 53.1091 46.1173 52.6778 45.7565C52.2465 45.3957 51.9567 44.8948 51.8593 44.342C51.7619 43.7891 51.8632 43.2197 52.1454 42.734C52.4275 42.2483 52.8725 41.8773 53.4019 41.6864L207.837 -14.1652C208.134 -14.2821 208.452 -14.3384 208.772 -14.3306C209.092 -14.3228 209.407 -14.2512 209.698 -14.1199C209.99 -13.9887 210.252 -13.8004 210.469 -13.5664C210.686 -13.3324 210.854 -13.0573 210.963 -12.7574C211.072 -12.4576 211.119 -12.139 211.103 -11.8205C211.086 -11.5021 211.005 -11.1902 210.865 -10.9034C210.725 -10.6166 210.529 -10.3607 210.288 -10.1508C210.048 -9.94083 209.767 -9.78117 209.463 -9.68123L55.0285 46.1704C54.7684 46.2649 54.4939 46.3136 54.2171 46.3145Z" fill="white"/>
<path d="M373.066 222.204C372.993 222.204 372.921 222.204 372.848 222.194C372.535 222.166 372.231 222.077 371.952 221.931C371.674 221.786 371.427 221.587 371.226 221.347C371.025 221.106 370.873 220.828 370.78 220.529C370.686 220.23 370.652 219.916 370.681 219.604L379.366 123.813C379.423 123.183 379.729 122.602 380.216 122.196C380.703 121.791 381.332 121.595 381.964 121.652C382.596 121.709 383.179 122.014 383.585 122.5C383.992 122.986 384.188 123.612 384.131 124.242L375.446 220.033C375.392 220.626 375.118 221.177 374.678 221.578C374.238 221.98 373.663 222.203 373.066 222.204Z" fill="white"/>
<path d="M378.015 167.573C377.721 167.573 377.429 167.518 377.154 167.412L320.413 145.621C319.821 145.393 319.344 144.94 319.087 144.362C318.83 143.783 318.814 143.127 319.042 142.537C319.271 141.946 319.725 141.471 320.305 141.214C320.885 140.958 321.544 140.942 322.136 141.169L378.877 162.961C379.399 163.161 379.834 163.536 380.107 164.023C380.38 164.509 380.474 165.076 380.371 165.624C380.269 166.172 379.977 166.667 379.547 167.023C379.116 167.379 378.575 167.574 378.015 167.573Z" fill="white"/>
<path d="M467.052 25.666C466.628 25.6655 466.212 25.5528 465.846 25.3395C465.48 25.1261 465.178 24.8197 464.97 24.4516C464.762 24.0835 464.656 23.6669 464.662 23.2445C464.669 22.822 464.788 22.4089 465.007 22.0473L521.872 -71.7868L453.712 -127.815C453.47 -128.014 453.269 -128.259 453.122 -128.536C452.974 -128.812 452.883 -129.115 452.853 -129.427C452.823 -129.739 452.855 -130.053 452.946 -130.353C453.038 -130.652 453.188 -130.931 453.388 -131.173C453.588 -131.414 453.834 -131.614 454.111 -131.761C454.389 -131.908 454.692 -132 455.005 -132.03C455.318 -132.06 455.633 -132.028 455.934 -131.936C456.234 -131.845 456.514 -131.695 456.756 -131.496L526.51 -74.1576C526.953 -73.7934 527.25 -73.2824 527.346 -72.7181C527.443 -72.1537 527.332 -71.5736 527.035 -71.0837L469.101 24.5211C468.887 24.8716 468.586 25.1611 468.227 25.3617C467.868 25.5622 467.463 25.667 467.052 25.666Z" fill="white"/>
<path d="M111.306 25.666C110.932 25.6655 110.564 25.5778 110.231 25.4099C109.897 25.2421 109.608 24.9987 109.386 24.6994C109.164 24.4001 109.015 24.053 108.952 23.6861C108.888 23.3192 108.912 22.9426 109.021 22.5864L132.79 -54.9774C132.915 -55.3826 133.146 -55.7471 133.459 -56.0335L243.305 -157.162C243.772 -157.591 244.39 -157.818 245.024 -157.793C245.658 -157.768 246.256 -157.492 246.686 -157.028C247.116 -156.563 247.344 -155.947 247.319 -155.315C247.293 -154.682 247.017 -154.086 246.551 -153.657L137.184 -52.9663L113.592 23.9802C113.442 24.4682 113.139 24.8953 112.728 25.1988C112.316 25.5022 111.818 25.666 111.306 25.666Z" fill="white"/>
<path d="M111.306 502.688C110.932 502.687 110.564 502.599 110.231 502.432C109.897 502.264 109.608 502.02 109.386 501.721C109.164 501.422 109.015 501.075 108.952 500.708C108.888 500.341 108.912 499.964 109.021 499.608L132.79 422.044C132.915 421.639 133.146 421.275 133.459 420.988L243.305 319.86C243.536 319.647 243.807 319.482 244.102 319.374C244.396 319.265 244.71 319.216 245.024 319.229C245.338 319.241 245.646 319.315 245.931 319.447C246.216 319.578 246.473 319.764 246.686 319.994C246.899 320.224 247.065 320.494 247.173 320.788C247.282 321.082 247.331 321.394 247.319 321.707C247.306 322.02 247.232 322.328 247.1 322.612C246.968 322.896 246.782 323.152 246.551 323.365L137.184 424.055L113.592 501.002C113.442 501.49 113.139 501.917 112.728 502.22C112.316 502.524 111.818 502.688 111.306 502.688Z" fill="white"/>
<path d="M279.173 186.9C278.781 186.899 278.394 186.803 278.048 186.619C277.702 186.435 277.406 186.169 277.187 185.844C276.969 185.519 276.833 185.146 276.794 184.756C276.754 184.367 276.811 183.974 276.959 183.612L303.004 120.003L280.174 1.40474C280.107 1.05679 280.118 0.698288 280.208 0.355293L295.421 -58.1877C295.585 -58.7952 295.983 -59.3137 296.528 -59.6303C297.073 -59.9469 297.721 -60.0361 298.332 -59.8784C298.942 -59.7206 299.466 -59.3287 299.788 -58.788C300.11 -58.2473 300.206 -57.6015 300.053 -56.9913L284.977 1.03172L307.84 119.798C307.928 120.252 307.881 120.721 307.705 121.149L281.392 185.413C281.213 185.853 280.906 186.229 280.51 186.494C280.115 186.759 279.65 186.9 279.173 186.9Z" fill="white"/>
<path d="M95.1734 328.098C94.617 328.098 94.0779 327.905 93.6489 327.551C93.2199 327.198 92.9279 326.707 92.8231 326.162C92.7183 325.617 92.8073 325.053 93.0747 324.566C93.3421 324.08 93.7713 323.701 94.2883 323.496L157.249 298.5C157.837 298.272 158.492 298.285 159.071 298.536C159.65 298.787 160.106 299.256 160.339 299.84C160.573 300.425 160.565 301.078 160.318 301.657C160.07 302.236 159.604 302.695 159.019 302.932L96.0585 327.928C95.7769 328.04 95.4766 328.098 95.1734 328.098Z" fill="white"/>
<path d="M575.893 327.239C575.741 327.239 575.59 327.225 575.441 327.196L480.809 309.069C480.192 308.944 479.649 308.582 479.298 308.06C478.947 307.538 478.817 306.899 478.936 306.282C479.054 305.665 479.413 305.12 479.932 304.764C480.452 304.409 481.092 304.273 481.712 304.385L575.657 322.38L635.669 298.501C636.258 298.267 636.917 298.276 637.5 298.525C638.083 298.775 638.542 299.245 638.777 299.833C639.013 300.42 639.004 301.077 638.754 301.658C638.503 302.239 638.031 302.698 637.442 302.932L576.778 327.069C576.497 327.181 576.196 327.239 575.893 327.239Z" fill="white"/>
<path d="M74.2214 224.861C73.2648 224.861 72.343 224.503 71.6376 223.859C70.9322 223.214 70.4943 222.33 70.4103 221.38C70.3263 220.43 70.6022 219.483 71.1836 218.725C71.765 217.968 72.6098 217.455 73.5516 217.288L302.614 176.419L458.153 -241.18C458.328 -241.65 458.594 -242.081 458.936 -242.448C459.278 -242.815 459.689 -243.112 460.146 -243.321C460.603 -243.53 461.097 -243.647 461.599 -243.665C462.101 -243.684 462.602 -243.604 463.074 -243.429C463.545 -243.255 463.977 -242.99 464.345 -242.649C464.714 -242.308 465.011 -241.898 465.221 -241.442C465.43 -240.986 465.547 -240.494 465.566 -239.993C465.585 -239.493 465.504 -238.993 465.329 -238.523L309.029 181.121C308.797 181.743 308.406 182.295 307.895 182.721C307.383 183.147 306.77 183.432 306.114 183.549L74.8998 224.801C74.6759 224.84 74.4489 224.861 74.2214 224.861Z" fill="white"/>
<path d="M378.016 465.774C377.399 465.774 376.791 465.625 376.244 465.34C375.696 465.054 375.227 464.642 374.874 464.136C374.522 463.631 374.297 463.048 374.22 462.437C374.142 461.826 374.214 461.206 374.429 460.629L448.824 260.891C448.999 260.421 449.265 259.99 449.607 259.623C449.949 259.256 450.36 258.959 450.817 258.75C451.274 258.542 451.768 258.425 452.27 258.406C452.772 258.387 453.273 258.468 453.744 258.642C454.216 258.816 454.648 259.082 455.016 259.423C455.384 259.764 455.682 260.174 455.891 260.629C456.101 261.085 456.218 261.577 456.237 262.078C456.256 262.579 456.175 263.078 456 263.548L381.604 463.286C381.333 464.016 380.843 464.646 380.202 465.091C379.56 465.536 378.798 465.774 378.016 465.774Z" fill="white"/>
<path d="M488.018 236.391C487.062 236.39 486.14 236.033 485.434 235.388C484.729 234.744 484.291 233.86 484.207 232.91C484.123 231.959 484.399 231.012 484.98 230.255C485.562 229.498 486.407 228.985 487.349 228.817L706.989 189.631C707.483 189.543 707.991 189.552 708.482 189.66C708.973 189.767 709.438 189.97 709.85 190.256C710.263 190.542 710.615 190.907 710.886 191.329C711.157 191.751 711.342 192.222 711.43 192.715C711.519 193.209 711.509 193.715 711.402 194.204C711.294 194.694 711.091 195.157 710.804 195.569C710.516 195.98 710.151 196.331 709.727 196.601C709.304 196.871 708.832 197.056 708.337 197.144L488.698 236.33C488.473 236.371 488.246 236.391 488.018 236.391Z" fill="white"/>
<path d="M405.763 122.692C405.217 122.693 404.681 122.538 404.22 122.245C403.759 121.952 403.391 121.534 403.16 121.04C402.929 120.547 402.844 119.997 402.915 119.457C402.987 118.916 403.211 118.407 403.563 117.99L566.705 -75.7765C567.196 -76.3517 567.896 -76.7098 568.651 -76.7728C569.406 -76.8357 570.156 -76.5984 570.736 -76.1125C571.316 -75.6267 571.681 -74.9318 571.749 -74.1793C571.818 -73.4268 571.585 -72.6779 571.102 -72.0958L407.959 121.671C407.691 121.991 407.355 122.248 406.975 122.425C406.596 122.601 406.182 122.692 405.763 122.692Z" fill="white"/>
<path d="M461.741 267.707C454.197 267.698 446.925 264.895 441.336 259.843C435.748 254.79 432.24 247.848 431.494 240.363C430.748 232.878 432.817 225.383 437.3 219.333C441.782 213.282 448.359 209.108 455.753 207.619C463.148 206.13 470.834 207.432 477.32 211.274C483.807 215.115 488.631 221.221 490.857 228.409C493.083 235.596 492.552 243.351 489.368 250.17C486.184 256.989 480.573 262.386 473.623 265.314C469.864 266.9 465.823 267.714 461.741 267.707ZM461.741 214.471C449.131 214.471 438.873 224.7 438.873 237.273C438.873 249.845 449.131 260.074 461.741 260.074C474.352 260.074 484.61 249.846 484.61 237.273C484.61 224.699 474.351 214.471 461.741 214.471Z" fill="white"/>
<path d="M226.07 3.81849C221.045 3.81841 216.175 2.08103 212.29 -1.09763C208.406 -4.27629 205.747 -8.69957 204.767 -13.6138C203.787 -18.5279 204.546 -23.629 206.915 -28.0477C209.284 -32.4665 213.116 -35.9295 217.759 -37.8468C222.401 -39.7641 227.567 -40.017 232.376 -38.5624C237.185 -37.1078 241.339 -34.0357 244.13 -29.8695C246.922 -25.7034 248.179 -20.701 247.686 -15.7147C247.193 -10.7285 244.982 -6.06676 241.428 -2.52399C239.416 -0.506931 237.022 1.09221 234.386 2.18089C231.75 3.26957 228.923 3.82617 226.07 3.81849ZM226.07 -33.7708C217.258 -33.7708 210.09 -26.6231 210.09 -17.8383C210.09 -9.05347 217.258 -1.90577 226.07 -1.90577C234.881 -1.90577 242.049 -9.05252 242.049 -17.8383C242.049 -26.6241 234.88 -33.7708 226.07 -33.7708Z" fill="white"/>
<path d="M434.479 314.181C433.971 314.182 433.468 314.082 433 313.886C432.532 313.691 432.107 313.404 431.752 313.043L302.76 182.422C302.058 181.699 301.67 180.728 301.682 179.722C301.694 178.715 302.104 177.754 302.824 177.048C303.543 176.341 304.513 175.947 305.523 175.95C306.533 175.954 307.5 176.355 308.214 177.067L437.206 307.688C437.735 308.224 438.093 308.904 438.236 309.643C438.379 310.381 438.3 311.145 438.008 311.839C437.717 312.533 437.227 313.125 436.599 313.542C435.971 313.959 435.233 314.181 434.479 314.181Z" fill="white"/>
<path d="M450.327 217.025C449.602 217.025 448.891 216.82 448.279 216.433C447.666 216.046 447.176 215.494 446.865 214.84L359.416 30.5653L243.708 -7.91612C243.231 -8.07473 242.79 -8.32543 242.411 -8.6539C242.031 -8.98237 241.72 -9.38218 241.495 -9.8305C241.271 -10.2788 241.137 -10.7668 241.101 -11.2668C241.066 -11.7667 241.129 -12.2687 241.289 -12.7441C241.448 -13.2195 241.699 -13.659 242.028 -14.0375C242.358 -14.416 242.759 -14.7261 243.209 -14.9501C243.658 -15.1741 244.148 -15.3076 244.649 -15.343C245.15 -15.3784 245.654 -15.315 246.131 -15.1564L363.388 23.8412C363.878 24.0041 364.33 24.2643 364.717 24.606C365.103 24.9477 365.416 25.3638 365.637 25.8294L453.78 211.576C454.056 212.157 454.18 212.799 454.14 213.441C454.101 214.083 453.9 214.705 453.555 215.249C453.21 215.792 452.732 216.24 452.167 216.551C451.602 216.861 450.968 217.024 450.323 217.025H450.327Z" fill="white"/>
<path d="M254.854 191.679C254.162 191.678 253.493 191.428 252.971 190.974C252.45 190.52 252.11 189.894 252.015 189.21L225.82 1.1737C225.716 0.421829 225.915 -0.340773 226.374 -0.946321C226.833 -1.55187 227.514 -1.95076 228.268 -2.05526C229.022 -2.15976 229.787 -1.9613 230.395 -1.50354C231.002 -1.04578 231.402 -0.366212 231.507 0.385661L257.701 188.428C257.806 189.18 257.607 189.942 257.148 190.548C256.689 191.153 256.007 191.552 255.253 191.656C255.121 191.673 254.987 191.68 254.854 191.679Z" fill="white"/>
<path d="M160.912 276.675C160.828 276.675 160.745 276.671 160.662 276.662C160.031 276.597 159.452 276.285 159.052 275.794C158.652 275.303 158.464 274.674 158.529 274.045L163.054 230.474C163.083 230.16 163.175 229.855 163.323 229.576C163.471 229.298 163.674 229.051 163.918 228.851C164.163 228.651 164.444 228.501 164.747 228.41C165.05 228.319 165.368 228.29 165.683 228.322C165.998 228.355 166.303 228.449 166.581 228.6C166.858 228.751 167.103 228.955 167.301 229.201C167.499 229.447 167.647 229.73 167.734 230.033C167.822 230.336 167.849 230.653 167.813 230.967L163.288 274.536C163.227 275.122 162.95 275.665 162.511 276.06C162.073 276.455 161.503 276.674 160.912 276.675Z" fill="white"/>
<path d="M305.439 183.609C304.822 183.609 304.214 183.46 303.666 183.175C303.119 182.889 302.649 182.476 302.297 181.971C301.945 181.466 301.72 180.883 301.643 180.272C301.565 179.661 301.637 179.041 301.852 178.464L458.153 -241.18C458.328 -241.65 458.594 -242.081 458.936 -242.448C459.278 -242.815 459.689 -243.112 460.146 -243.321C460.603 -243.53 461.096 -243.647 461.599 -243.665C462.101 -243.684 462.602 -243.604 463.073 -243.429C463.544 -243.255 463.977 -242.99 464.345 -242.649C464.713 -242.308 465.011 -241.898 465.22 -241.442C465.43 -240.986 465.547 -240.494 465.566 -239.993C465.584 -239.493 465.504 -238.993 465.329 -238.523L309.028 181.121C308.756 181.851 308.267 182.481 307.625 182.926C306.983 183.371 306.221 183.609 305.439 183.609Z" fill="white"/>
<path d="M709.173 337.039C708.823 337.039 708.477 336.962 708.16 336.813L635.541 302.877C635.091 302.667 634.718 302.322 634.474 301.891C634.229 301.46 634.125 300.963 634.177 300.471L644.128 204.91L501.861 4.75155C501.675 4.49626 501.541 4.20662 501.468 3.89945C501.395 3.59228 501.384 3.27368 501.435 2.96213C501.486 2.65058 501.599 2.35227 501.767 2.08451C501.934 1.81675 502.154 1.58487 502.412 1.40231C502.671 1.21975 502.963 1.09015 503.272 1.02102C503.581 0.951882 503.9 0.944603 504.212 0.999587C504.524 1.05457 504.822 1.17073 505.088 1.34133C505.354 1.51193 505.584 1.73358 505.764 1.99341L648.554 202.885C648.889 203.356 649.041 203.932 648.982 204.506L639.113 299.277L710.192 332.493C710.686 332.723 711.086 333.114 711.326 333.602C711.567 334.089 711.633 334.643 711.515 335.174C711.396 335.704 711.1 336.177 710.674 336.517C710.249 336.856 709.72 337.04 709.175 337.039H709.173Z" fill="white"/>
</g>
</svg>
